<svg width="90" height="45" viewBox="0 0 90 45" fill="none" xmlns="http://www.w3.org/2000/svg">
<path d="M29.9998 31.3146V14.0309H30.9373V16.7496C31.048 16.6291 31.1502 16.501 31.2433 16.3664C32.0263 14.7419 33.6778 13.7166 35.4808 13.7369C37.6183 13.6731 39.3553 14.4644 40.376 16.3664C41.0256 17.548 41.383 18.8678 41.4185 20.2157C41.454 21.5637 41.1665 22.9005 40.58 24.1146C39.629 26.2461 37.28 27.3059 34.7653 26.9166C33.9827 26.8501 33.2292 26.5886 32.5736 26.156C31.918 25.7234 31.3813 25.1335 31.0123 24.4401V31.3139L29.9998 31.3146ZM30.9373 20.1449L31.1473 22.1744C31.5178 24.4844 32.8835 25.8494 35.0278 26.1059C36.0347 26.2714 37.0679 26.0827 37.9513 25.5717C38.8346 25.0608 39.5135 24.2593 39.872 23.3039C40.706 21.3164 40.6445 19.0664 39.707 17.1254C39.3243 16.2689 38.6733 15.5603 37.8522 15.1067C37.0312 14.653 36.0848 14.4789 35.156 14.6106C34.2843 14.6741 33.4539 15.0074 32.7802 15.5644C32.1066 16.1214 31.6231 16.8743 31.397 17.7186C31.1974 18.5176 31.0439 19.3275 30.9373 20.1441V20.1449ZM60.5608 22.4939C60.4186 23.7108 59.8393 24.8347 58.9305 25.6565C58.0218 26.4783 56.8456 26.9421 55.6205 26.9616C51.689 27.1596 49.844 24.5489 49.5508 21.5361C49.3468 19.9001 49.6124 18.2397 50.3165 16.7489C50.8066 15.7262 51.6095 14.886 52.6089 14.3502C53.6084 13.8143 54.7525 13.6105 55.8755 13.7684C56.9431 13.8591 57.9552 14.2833 58.7684 14.9809C59.5816 15.6786 60.1549 16.6143 60.407 17.6556C60.6067 18.6043 60.7537 19.5632 60.8473 20.5281H50.522C50.3308 23.2596 51.7985 25.4556 53.879 25.9851C56.4703 26.6226 58.685 25.4999 59.489 23.0361C59.6675 22.4039 59.993 22.3146 60.5675 22.4939H60.5608ZM50.5145 19.6536H59.75C59.6923 16.7436 57.8803 14.6286 55.4225 14.6046C52.6475 14.5596 50.6353 16.5899 50.5145 19.6536ZM62.4695 22.5576H63.3748C63.408 23.2246 63.6246 23.8694 64.0007 24.4212C64.3767 24.9729 64.8977 25.4103 65.5063 25.6851C66.2704 26.029 67.1023 26.1962 67.94 26.1741C68.7776 26.152 69.5995 25.9413 70.3445 25.5576C70.7506 25.3748 71.0908 25.0717 71.3191 24.6893C71.5474 24.3069 71.6528 23.8636 71.621 23.4194C71.6444 22.991 71.5274 22.5666 71.2879 22.2106C71.0483 21.8547 70.6992 21.5865 70.2935 21.4469C69.2975 21.0764 68.2385 20.8724 67.2238 20.5469C66.1678 20.2463 65.1353 19.8687 64.1345 19.4174C62.4995 18.6194 62.3983 15.5114 64.2493 14.5274C65.197 13.9926 66.2637 13.7036 67.3518 13.6868C68.4399 13.6701 69.5149 13.926 70.4788 14.4314C71.6743 15.0914 72.335 16.4241 72.1385 17.7764H71.3623C71.3623 17.7389 71.2918 17.7059 71.2918 17.6676C71.1958 15.1926 69.1153 14.4186 66.8818 14.6361C66.2068 14.7111 65.567 14.9151 64.967 15.2166C64.6063 15.3813 64.3058 15.6541 64.1069 15.9971C63.908 16.3402 63.8207 16.7365 63.857 17.1314C63.8578 17.5265 63.9809 17.9117 64.2095 18.2341C64.4381 18.5564 64.7609 18.8 65.1335 18.9314C66.1085 19.2891 67.1435 19.5186 68.1523 19.7991L70.5898 20.4366C71.1438 20.6185 71.6295 20.9642 71.9828 21.4281C72.3361 21.892 72.5402 22.4522 72.5683 23.0346C72.7633 24.3434 72.0958 25.6296 70.9153 26.2259C68.7838 27.4319 65.273 27.1131 63.7093 25.5884C62.909 24.7836 62.4628 23.6909 62.4718 22.5569L62.4695 22.5576ZM84.0545 17.7771H83.2055C83.2055 17.6624 83.1605 17.5521 83.1478 17.4644C83.1342 16.828 82.9023 16.2156 82.4908 15.7299C82.0794 15.2442 81.5135 14.9147 80.888 14.7966C79.7081 14.4582 78.4494 14.5188 77.3075 14.9691C76.856 15.0984 76.4584 15.3703 76.1742 15.7442C75.8901 16.1181 75.7346 16.574 75.731 17.0436C75.7148 17.5048 75.8584 17.9573 76.1375 18.3248C76.4165 18.6923 76.814 18.9521 77.2625 19.0604L81.143 20.0564C81.5627 20.157 81.9759 20.2828 82.3805 20.4329C83.618 20.8829 84.458 22.0319 84.4955 23.3451C84.5141 23.9879 84.3377 24.6213 83.9897 25.1621C83.6417 25.7029 83.1383 26.1257 82.5455 26.3751C81.6448 26.7843 80.6687 27.0007 79.6795 27.0107C78.6903 27.0206 77.71 26.8238 76.8013 26.4329C76.054 26.1106 75.4233 25.5672 74.9942 24.8757C74.5651 24.1842 74.3582 23.3778 74.4013 22.5651H75.2308C75.5428 24.0689 76.5755 25.3214 77.9923 25.9139C79.409 26.5064 81.0267 26.3609 82.3153 25.5269C82.7019 25.3258 83.0227 25.0182 83.2399 24.6405C83.4571 24.2627 83.5615 23.8306 83.5408 23.3954C83.56 22.9667 83.4389 22.5434 83.1958 22.1897C82.9527 21.836 82.6009 21.5713 82.1938 21.4356C81.1978 21.0651 80.1388 20.8679 79.124 20.5356C78.0622 20.2396 77.0234 19.8664 76.016 19.4189C74.42 18.6336 74.2925 15.5511 76.112 14.5679C77.0715 14.0106 78.1589 13.7112 79.2685 13.6989C80.378 13.6865 81.4718 13.9616 82.4435 14.4974C82.9993 14.8291 83.4466 15.3152 83.7311 15.8966C84.0155 16.478 84.1247 17.1295 84.0455 17.7719L84.0545 17.7771ZM28.457 26.6496C28.1228 26.776 27.7539 26.7757 27.42 26.6487C27.086 26.5217 26.8101 26.2769 26.6443 25.9604L23.3443 21.3966L22.8658 20.7591L19.0363 25.9671C18.8802 26.27 18.6192 26.5057 18.302 26.6302C17.9849 26.7547 17.6332 26.7595 17.3128 26.6436L22.2463 20.0249L17.6563 14.0444C18.3373 13.7984 19.0963 14.0654 19.475 14.6819L22.895 19.3019L26.3353 14.6999C26.4925 14.4022 26.7537 14.1727 27.0691 14.055C27.3846 13.9373 27.7322 13.9397 28.046 14.0616L26.2648 16.4249L23.852 19.5651C23.7851 19.6249 23.7315 19.6982 23.6948 19.7801C23.6581 19.8621 23.6392 19.9509 23.6392 20.0406C23.6392 20.1304 23.6581 20.2192 23.6948 20.3011C23.7315 20.3831 23.7851 20.4563 23.852 20.5161L28.4473 26.6496H28.457ZM49.4045 13.9806V14.8806C48.759 14.8383 48.1117 14.9318 47.5046 15.1551C46.8974 15.3783 46.3438 15.7264 45.8794 16.1769C45.4151 16.6274 45.0504 17.1702 44.8088 17.7703C44.5673 18.3705 44.4543 19.0146 44.477 19.6611C44.477 21.7631 44.477 23.8651 44.477 25.9671V26.6819H43.5643V14.0369H44.4643V16.6281C45.5683 14.7381 47.2723 14.0369 49.4105 13.9859L49.4045 13.9806ZM5.49955 19.9424L5.90155 17.9571C7.00555 14.0316 11.5055 12.3981 14.6015 14.8296C16.4143 16.2531 16.8665 18.2699 16.778 20.5424H6.5653C6.4003 24.6014 9.32905 27.0524 13.0753 25.8014C14.3098 25.3514 15.239 24.3254 15.545 23.0504C15.743 22.4129 16.07 22.3034 16.6685 22.4879C16.5687 23.265 16.294 24.0093 15.8651 24.665C15.4361 25.3206 14.8641 25.8704 14.192 26.2731C13.0817 26.8804 11.8078 27.121 10.5525 26.9605C9.29717 26.8001 8.12472 26.2468 7.2028 25.3799C6.2908 24.3546 5.7403 23.0586 5.63305 21.6899C5.63305 21.4649 5.55805 21.2549 5.50555 21.0524C5.50055 20.6739 5.49805 20.3039 5.49805 19.9424H5.49955ZM6.57805 19.6679H15.8135C15.7558 16.7256 13.8988 14.6384 11.4223 14.6189C8.66529 14.5814 6.6928 16.6229 6.5713 19.6551L6.57805 19.6679Z" fill="black"/>
</svg>
