<svg width="60" height="60" viewBox="0 0 60 60" fill="none" xmlns="http://www.w3.org/2000/svg">
<path d="M60 0H0V60H60V0Z" fill="#F7DF1E"/>
<path d="M40.3048 46.8752C41.5133 48.8485 43.0857 50.299 45.8667 50.299C48.2029 50.299 49.6952 49.1313 49.6952 47.518C49.6952 45.5847 48.1619 44.8999 45.5905 43.7752L44.181 43.1704C40.1124 41.4371 37.4095 39.2656 37.4095 34.6752C37.4095 30.4466 40.6314 27.2275 45.6667 27.2275C49.2514 27.2275 51.8286 28.4752 53.6857 31.7418L49.2952 34.5609C48.3286 32.8275 47.2857 32.1447 45.6667 32.1447C44.0152 32.1447 42.9686 33.1923 42.9686 34.5609C42.9686 36.2523 44.0162 36.9371 46.4352 37.9847L47.8448 38.5885C52.6352 40.6428 55.34 42.7371 55.34 47.4456C55.34 52.5218 51.3524 55.3028 45.9971 55.3028C40.761 55.3028 37.3781 52.8075 35.7229 49.5371L40.3048 46.8752ZM20.3876 47.3637C21.2733 48.9352 22.079 50.2637 24.0162 50.2637C25.8686 50.2637 27.0371 49.539 27.0371 46.7209V27.5494H32.6752V46.7971C32.6752 52.6352 29.2524 55.2923 24.2562 55.2923C19.7419 55.2923 17.1276 52.9561 15.7981 50.1423L20.3876 47.3637Z" fill="black"/>
</svg>
