<svg width="60" height="70" viewBox="0 0 60 70" fill="none" xmlns="http://www.w3.org/2000/svg">
<path fill-rule="evenodd" clip-rule="evenodd" d="M22.2567 6.01878C21.6512 7.21563 21.2526 8.68712 21.2179 10.4922C21.0708 18.1485 21.5513 16.9644 21.2547 20.4776C21.1458 21.7706 20.3793 23.661 19.4381 25.5541C18.3586 27.7168 17.0578 29.8746 16.2552 31.1406C14.7379 33.5337 12.9536 36.0221 11.7083 38.5516C10.9965 39.987 10.456 41.4357 10.2346 42.8879C10.0866 43.8587 10.0694 45.1138 10.1025 46.2901C9.22489 47.0526 8.7741 48.3368 7.87228 49.3158C7.2906 49.9458 6.16624 50.1504 4.92012 50.3918C3.85102 50.5964 2.71979 51.0125 2.32434 51.6494C2.28019 51.7205 2.24028 51.7942 2.20365 51.8699C1.30324 53.6035 2.40526 56.5789 1.86778 58.78C1.64018 59.7157 1.25161 60.5963 1.24467 61.4033C1.24233 61.8195 1.33662 62.2609 1.62636 62.7622C1.94363 63.314 2.64031 63.7071 3.63128 64.0497C4.55557 64.3693 5.75576 64.6498 7.15136 64.9786L7.63422 65.0913C8.26188 65.2408 8.88728 65.3902 9.51955 65.5167C9.93111 65.6017 10.1703 65.6431 10.3748 65.6799C11.2646 65.8385 11.6026 65.9006 13.9754 66.8272C14.5479 67.0502 15.1824 67.2893 15.8538 67.4939C17.1804 67.9055 18.6795 68.2044 20.0637 67.9538C20.765 67.8274 21.4271 67.5606 22.0157 67.1008C22.625 66.6249 23.2113 65.9834 23.6275 65.3328C23.7387 65.1592 23.8416 64.9796 23.9317 64.7948C24.0106 64.6388 24.0807 64.479 24.1392 64.3158C24.1949 64.1671 24.2414 64.0129 24.2753 63.858C24.8336 63.5796 26.215 63.1596 29.5042 63.1278C34.4613 63.0795 37.763 64.8683 37.763 64.8683L37.7653 64.8315C37.8067 65.0661 37.8573 65.2844 37.9217 65.4937C38.016 65.7995 38.1424 66.08 38.3125 66.3513C38.485 66.6203 38.6988 66.8755 38.9701 67.1261C39.2644 67.3974 39.6185 67.6481 40.0232 67.8619C40.4002 68.0596 40.8233 68.2252 41.2877 68.347C41.7108 68.4574 42.1683 68.531 42.6534 68.554C43.1064 68.577 43.58 68.5563 44.0744 68.485C44.909 68.3655 45.5527 68.1011 46.1068 67.7585C46.6472 67.4251 47.0886 67.025 47.5392 66.6158L47.5531 66.6043C47.8497 66.3353 48.1509 66.0617 48.4842 65.811C48.7072 65.6432 48.9119 65.4868 49.1073 65.3351C49.397 65.1121 49.558 64.9857 49.7212 64.8569C50.211 64.4729 50.7168 64.0729 51.2226 63.6958C51.7468 63.3072 52.3032 62.9118 52.9079 62.5255C53.3655 62.2312 53.8805 61.8978 54.3748 61.5737C54.8853 61.238 55.4187 60.8862 55.9222 60.5413C56.8215 59.9305 58.0628 59.1734 58.533 58.1899C58.69 57.8857 58.7743 57.5596 58.7515 57.2091C58.6779 56.0848 57.3467 55.0708 56.1695 54.0638C55.597 53.5717 55.0199 53.0843 54.7187 52.5854C54.475 52.183 54.1807 51.576 54.098 51.1346C53.8656 49.9104 53.8706 48.9959 53.291 48.1873C52.759 47.4452 52.2941 47.2317 51.4743 47.1391C51.3514 47.1252 51.2359 47.108 51.1239 47.0898C51.6565 45.1289 51.7755 43.884 51.6781 42.2415C51.4555 38.4892 48.9989 34.2197 46.2198 29.8936C44.5797 27.1846 42.8539 24.6425 41.7741 22.8566C41.1838 21.8644 40.8455 21.2111 40.5372 20.3468C40.1819 19.3507 40.0588 16.9338 40.0175 13.0367C40.1647 7.06565 38.3161 4.30894 36.079 2.58913C33.8419 0.869317 30.5586 0.896909 29.3745 1.00036L29.3745 1.00033C28.3818 1.08688 24.2058 2.08861 22.2567 6.0188L22.2567 6.01878Z" fill="#2E3336"/>
<path fill-rule="evenodd" clip-rule="evenodd" d="M7.37682 50.426C6.20039 50.9912 3.49146 50.9797 2.83431 52.1056C2.11284 53.344 2.57928 54.7158 2.58616 56.2966C2.58849 57.4155 2.57007 58.6609 2.09908 59.9867C1.71305 61.0781 1.58209 61.4641 2.13581 62.4245C2.68954 63.3873 5.09289 63.8491 8.34411 64.6257C11.5976 65.4001 10.5613 64.8279 14.2032 66.2502C16.4595 67.1325 19.6441 68.2147 21.7074 66.604C22.4679 66.0089 23.7155 64.6625 23.7914 63.3505C23.8351 62.6015 23.7661 61.8019 23.5869 61.3171C22.9918 59.6994 21.8016 59.0078 20.6712 57.3168C18.6009 54.1758 16.4021 51.198 14.6443 48.5833C13.4036 46.7337 12.4064 46.2856 11.5631 46.4326C8.97136 46.8899 9.80774 49.2587 7.37677 50.426H7.3768H7.37682Z" fill="#FCC624"/>
<path fill-rule="evenodd" clip-rule="evenodd" d="M40.3435 47.752C39.2019 48.5585 39.4491 50.9758 39.3822 52.2491C39.2805 54.1972 39.2666 56.3695 39.1996 57.2338C39.0886 58.6643 38.0048 61.895 38.1366 63.4203C38.266 64.9432 38.3769 65.8352 39.3244 66.7088C40.2742 67.5823 41.945 68.234 44.0087 67.9359C46.0724 67.6377 46.8534 66.3551 48.1915 65.3522C49.5272 64.3493 50.9023 63.1591 52.6679 62.0267C54.4334 60.8921 57.2759 59.034 57.6849 58.5326C58.094 58.0288 58.3713 57.5944 58.0755 56.9334C57.782 56.2724 56.7514 55.251 55.6259 54.322C52.691 51.8955 53.9581 49.6399 52.7326 48.4475C52.3587 48.0447 52.0809 47.8227 51.647 47.7343C49.3046 47.2573 48.6611 48.1773 47.2858 48.0422C45.8028 47.8964 46.3603 48.2225 43.316 47.8162C42.2681 47.6972 41.0669 47.2823 40.3435 47.7519V47.752Z" fill="#FCC624"/>
<path fill-rule="evenodd" clip-rule="evenodd" d="M22.8726 20.8659C22.8991 20.8939 22.8892 20.9436 22.9187 20.9729C23.2654 21.3182 23.6664 21.6567 24.016 22.0528C24.418 22.5082 24.7865 23.0176 25.1286 23.3297C25.7577 23.9037 26.3554 24.2104 27.2286 24.3182C28.9148 24.5263 30.1756 24.0587 31.5977 23.1208C32.2668 22.6794 33.1933 21.8655 33.729 21.4631C34.6211 20.7917 34.8763 20.8446 35.1407 20.5067C35.4144 20.1549 35.5477 19.2352 35.4672 18.8007C35.4029 18.465 35.2856 18.242 34.9223 18.012C34.5176 17.7568 33.821 17.4878 32.6139 17.0786L32.6117 17.0763C31.994 16.8506 31.3576 16.6231 30.8102 16.4142C29.5848 15.9383 28.7863 15.5777 27.6718 15.6669C27.1593 15.708 26.6548 15.8181 26.221 15.9865V15.9888C25.4046 16.3322 24.6146 16.8602 23.9662 17.3144C23.396 17.7122 22.8119 18.241 22.474 18.7836C22.2736 19.1047 21.9566 19.7672 22.2523 20.1481C22.2531 20.1491 23.0078 20.5357 23.7654 20.9837C24.9901 21.7079 26.389 22.0819 27.6381 22.0124C28.6315 21.957 29.7404 21.6433 30.5411 21.2579C31.347 20.87 32.3379 20.2582 33.3037 19.513C33.4532 19.4026 33.7379 19.123 33.9159 19.0387C34.0729 18.9643 34.5788 19.0074 34.5556 19.1793C34.5374 19.3138 33.9432 19.554 33.7291 19.713C32.6725 20.4977 31.4962 21.2663 30.7317 21.6187C29.9418 21.9828 28.6124 22.4031 27.7139 22.4561C26.8931 22.5045 26.196 22.4135 25.4824 22.1722C24.7926 21.9389 24.3836 21.7364 23.649 21.3121C23.4148 21.1768 23.1895 21.0639 22.8725 20.8659H22.8726Z" fill="#FCC624"/>
<path fill-rule="evenodd" clip-rule="evenodd" d="M32.8699 10.519C31.5241 10.5031 30.2244 11.5472 29.7971 12.9547C29.4432 14.1289 29.4593 15.0619 29.5167 15.572V15.5721C29.912 15.6916 30.3233 15.8479 30.7944 16.0294C30.5025 15.3722 30.5233 14.5196 30.9093 13.8165C31.4608 12.8077 32.5524 12.4837 33.3474 13.0949C34.1402 13.7062 34.3378 15.0183 33.7841 16.0271C33.5841 16.3925 33.313 16.6682 33.0096 16.8428C33.5358 17.0244 33.9587 17.1783 34.3011 17.3185C34.7428 16.7578 35.3277 15.8633 35.5741 15.0987C35.9752 13.8546 35.6661 11.6472 33.9932 10.797C33.6272 10.611 33.2468 10.5234 32.8699 10.519V10.519ZM24.0701 11.1176C23.8557 11.1172 23.6262 11.1573 23.3813 11.2428H23.3812C22.3196 11.6127 21.9152 13.3982 22.2898 15.016C22.4966 15.9076 22.8619 16.7555 23.4065 17.2817C23.5191 17.1944 23.634 17.1094 23.7489 17.0313C23.8385 16.9669 23.9281 16.9049 24.0155 16.8451C23.3284 16.5096 22.8757 15.4687 22.9952 14.4599C23.1193 13.4098 23.8179 12.7893 24.5555 13.0765C25.2932 13.3638 25.7895 14.4507 25.6654 15.5008C25.6493 15.6387 25.6241 15.7697 25.5896 15.8915C25.8079 15.7789 26.0055 15.6893 26.1894 15.618C26.2354 15.5997 26.279 15.5812 26.3226 15.5674C26.3916 15.0389 26.3824 14.4621 26.2675 13.8853C25.9456 12.3013 25.2279 11.1197 24.0701 11.1176H24.0701ZM35.2317 20.9562C34.979 21.0872 34.5377 21.271 33.8644 21.7926C33.375 22.1741 32.4696 22.9669 31.7757 23.4471C31.3225 23.7609 30.8266 24.0321 30.3386 24.2445C29.6365 24.5503 28.951 24.7342 28.4344 24.7478C26.5826 24.8457 25.7017 24.387 24.8574 23.5071C24.5032 23.1381 24.2349 22.7337 23.7882 22.2404C23.5902 22.0218 23.3164 21.7314 23.0371 21.5319C23.0295 21.7744 22.2521 26.9503 21.2057 29.2384C20.1594 31.5265 20.2107 30.7491 19.5075 33.1408C18.531 34.0269 17.4604 36.4077 16.7556 38.457C16.0284 40.8629 15.4775 42.718 15.432 45.413C15.0686 44.6887 14.8072 43.9094 14.7045 43.0619C14.3425 40.0855 15.1305 36.5355 17.4828 33.9798C17.5823 33.8716 17.5803 33.8274 17.5361 33.8302C17.5017 33.8324 17.4419 33.863 17.3846 33.9142C14.4469 36.5352 13.7484 41.3697 14.0505 43.5298C14.2665 45.0741 14.6694 46.4065 15.4891 47.4898C15.4893 47.4925 15.4894 47.4951 15.4896 47.4978C15.5034 47.5136 15.5176 47.529 15.5316 47.5446C15.7467 47.822 15.9895 48.083 16.2647 48.3264C16.2647 48.3264 16.2647 48.3264 16.2647 48.3264C16.7446 48.8562 17.3437 49.4345 18.5639 50.3619C20.8093 52.0684 22.383 52.9695 22.6927 54.0793C23.1049 55.5566 22.1809 56.5335 21.0289 57.1342C21.8712 57.977 24.5602 59.7037 29.4637 59.4879C33.7821 59.2979 36.4901 57.6635 38.8018 54.8437C38.8166 54.1948 38.8876 53.109 38.9197 51.9369C38.9504 50.8175 38.9569 49.6965 39.1282 48.8272C39.1685 48.6226 39.2457 48.4288 39.3148 48.2584C39.5968 47.5627 40.3558 47.0888 41.0822 47.0546C41.4641 47.0366 41.8649 47.009 42.2482 47.0885C42.319 46.5349 42.3741 46.0025 42.4128 45.4848C42.9077 45.3413 43.7779 45.2059 44.8233 45.1711C46.4432 45.1171 48.3836 45.2682 49.3634 45.8826C49.1451 45.6917 48.8776 45.5233 48.5926 45.3869C47.4463 44.8384 45.8763 44.6539 44.276 44.6041C44.7036 43.4689 45.1457 41.8405 45.0988 40.6224C44.9758 37.4252 43.3866 34.9625 41.1216 33.2495C41.0653 33.207 41.0105 33.1747 40.9893 33.1715C40.968 33.1683 40.9803 33.1942 41.0583 33.2681C43.6813 35.751 44.558 38.5787 44.3395 41.3226C44.2542 42.3935 43.7895 43.6074 43.2577 44.5883C43.0084 44.5878 42.7145 44.6008 42.4631 44.6053C42.5901 41.2446 41.9294 38.425 40.0562 34.4994C39.8769 34.1594 39.0196 32.717 38.5078 32.3099C38.1078 30.3532 38.0551 30.4492 37.255 28.658C36.0415 25.9414 35.6017 22.8014 35.2317 20.9562V20.9562Z" fill="#F5F5F5"/>
<path fill-rule="evenodd" clip-rule="evenodd" d="M49.8622 47.4189C49.9025 47.3431 49.9842 47.0394 49.9904 46.9777C50.1447 45.4395 47.1524 45.0934 44.8232 45.171C43.7664 45.2063 42.9427 45.3309 42.4508 45.4762C41.5939 45.7292 41.1719 46.3095 41.077 47.0356C40.8848 48.5055 41.3209 51.6106 42.7794 52.2899C44.2875 52.9925 46.5715 51.9897 47.9197 50.4771C48.8326 49.4529 49.414 48.2604 49.8622 47.4189Z" fill="#2E3336"/>
<path fill-rule="evenodd" clip-rule="evenodd" d="M26.9442 16.4578C26.8453 16.3106 26.4337 16.3865 26.236 16.4578C26.0405 16.5314 25.8888 16.7452 25.9693 16.8901C26.0107 16.9636 26.1003 17.0004 26.1693 16.9866C26.2751 16.9636 26.3877 16.8464 26.5303 16.7383C26.682 16.621 26.9028 16.5176 26.9441 16.4578H26.9442Z" fill="#2E3336"/>
<path fill-rule="evenodd" clip-rule="evenodd" d="M28.2227 16.4625C28.1629 16.4004 28.8918 16.2509 29.1792 16.4763C29.4688 16.7016 29.4505 16.8786 29.3631 16.9729C29.2712 17.0695 28.4227 16.543 28.2227 16.4624V16.4625V16.4625Z" fill="#2E3336"/>
</svg>
