<svg width="59" height="59" viewBox="0 0 59 59" fill="none" xmlns="http://www.w3.org/2000/svg">
<path d="M27.5679 0.0158771C27.4411 0.0274101 27.0373 0.0677756 26.674 0.0966082C18.294 0.85202 10.4447 5.37296 5.47322 12.3216C2.70489 16.1852 0.934311 20.5677 0.265298 25.2097C0.0288368 26.8301 0 27.3087 0 29.5058C0 31.7028 0.0288368 32.1814 0.265298 33.8018C1.86862 44.8793 9.75259 54.1864 20.4453 57.6348C22.36 58.2518 24.3786 58.6728 26.674 58.9265C27.5679 59.0245 31.4321 59.0245 32.326 58.9265C36.2882 58.4882 39.6448 57.5079 42.9552 55.8183C43.4628 55.5588 43.5608 55.4896 43.4916 55.432C43.4455 55.3974 41.2827 52.4968 38.6874 48.9908L33.9697 42.6188L28.0582 33.871C24.8054 29.0618 22.1293 25.129 22.1063 25.129C22.0832 25.1232 22.0601 29.0099 22.0486 33.7557C22.0313 42.0652 22.0255 42.3997 21.9217 42.5957C21.7717 42.8783 21.6564 42.9936 21.4142 43.1205C21.2296 43.2128 21.0681 43.2301 20.1973 43.2301H19.1995L18.9342 43.0628C18.7612 42.9533 18.6343 42.8091 18.5478 42.6419L18.4267 42.3824L18.4382 30.8205L18.4555 19.2529L18.6343 19.028C18.7266 18.9069 18.9227 18.7512 19.0611 18.6763C19.2976 18.561 19.3898 18.5494 20.3876 18.5494C21.5641 18.5494 21.7602 18.5956 22.0659 18.93C22.1524 19.0223 25.3533 23.8431 29.1828 29.6499C33.0123 35.4568 38.2491 43.3857 40.8213 47.2781L45.4929 54.3536L45.7293 54.1979C47.8229 52.837 50.0375 50.8995 51.7908 48.8812C55.5223 44.5967 57.9273 39.3723 58.7347 33.8018C58.9712 32.1814 59 31.7028 59 29.5058C59 27.3087 58.9712 26.8301 58.7347 25.2097C57.1314 14.1323 49.2474 4.82514 38.5547 1.37677C36.6688 0.765523 34.6618 0.344568 32.4125 0.0908417C31.8588 0.0331766 28.0466 -0.0302549 27.5679 0.0158771ZM39.6448 17.8574C39.9216 17.9958 40.1465 18.2611 40.2273 18.5379C40.2734 18.6878 40.2849 21.894 40.2734 29.1194L40.2561 39.4876L38.4279 36.6851L36.5938 33.8826V26.3457C36.5938 21.473 36.6169 18.7339 36.6515 18.6013C36.7438 18.2784 36.9456 18.0247 37.2225 17.8747C37.4589 17.7536 37.5455 17.7421 38.4509 17.7421C39.3045 17.7421 39.4544 17.7536 39.6448 17.8574Z" fill="black"/>
</svg>
