<svg width="64" height="64" viewBox="0 0 64 64" fill="none" xmlns="http://www.w3.org/2000/svg">
<path d="M32 4.09375C30.9492 4.09375 29.8984 4.37109 28.9609 4.92188L10.9609 15.5156C9.13281 16.5859 8 18.5703 8 20.6875V44.0234C8 46.2188 9.19531 48.2383 11.125 49.2891L17.0234 52.5078C17.9297 53.0039 18.9141 53.2422 19.8984 53.2422C20.9531 53.2422 21.9961 52.957 22.9531 52.3984C24.793 51.3047 25.8906 49.3789 25.8906 47.2344V21.8594H21.8906V47.2344C21.8906 48.2617 21.2109 48.7812 20.9141 48.9531C20.6211 49.125 19.8359 49.4844 18.9375 48.9922L13.0469 45.7812C12.4023 45.4297 12 44.7539 12 44.0234V20.6875C12 19.9844 12.375 19.3203 12.9844 18.9609L30.9844 8.36719C31.6094 8 32.3906 8.00391 33.0156 8.36719L51.0156 18.9609C51.6211 19.3203 52 19.9844 52 20.6875V44.0391C52 44.7578 51.6016 45.4375 50.9609 45.7969L32.9609 55.6016C32.3594 55.9219 31.6406 55.9219 31.0391 55.6016L27.5234 53.6797C26.8438 54.5195 26 55.2422 25 55.8438C24.6797 56.043 24.3594 56.1992 24.0391 56.3203L29.1172 59.1172C30.0391 59.5977 31 59.8438 32 59.8438C33 59.8438 33.9609 59.5977 34.8828 59.1172L52.8828 49.2812C54.8047 48.2422 56 46.2383 56 44.0391V20.6875C56 18.5703 54.8711 16.5859 53.0469 15.5156L35.0469 4.92188C34.1094 4.37109 33.0508 4.09375 32 4.09375ZM37.8047 21.2734C31.4844 21.2734 28.2812 23.4766 28.2812 27.8203C28.2812 32.7422 33.9492 33.4727 36.6719 33.8203C37.0625 33.8711 37.4102 33.918 37.6875 33.9688L38.8828 34.1797C43.043 34.875 44 35.3477 44 36.6875C44 37.3359 43.9961 39.2969 37.8047 39.2969C32.5508 39.2969 31.4766 37.7383 31.4766 35.3984H27.4766C27.4766 39.0078 29.2695 43.2969 37.8047 43.2969C46.2305 43.2969 48 39.7031 48 36.6875C48 31.6562 43.1094 30.832 39.5469 30.2266L38.3984 30.0312C38.0664 29.9727 37.6484 29.9141 37.1797 29.8594C34.6367 29.5312 32.2812 29.0586 32.2812 27.8281C32.2812 26.9375 32.2773 25.2773 37.8047 25.2734C41.4805 25.2734 43.3516 26.4844 43.3516 28.8672H47.3516C47.3516 25.1992 44.8359 21.2734 37.8047 21.2734Z" fill="#2ECC71"/>
</svg>
