<svg width="60" height="53" viewBox="0 0 60 53" fill="none" xmlns="http://www.w3.org/2000/svg">
<g clip-path="url(#clip0_117_155)">
<path d="M29.9999 31.711C32.9534 31.711 35.3478 29.3413 35.3478 26.418C35.3478 23.4948 32.9534 21.125 29.9999 21.125C27.0464 21.125 24.6521 23.4948 24.6521 26.418C24.6521 29.3413 27.0464 31.711 29.9999 31.711Z" fill="#61DAFB"/>
<path d="M30.0001 37.2622C45.8483 37.2622 58.6957 32.407 58.6957 26.4179C58.6957 20.4289 45.8483 15.5737 30.0001 15.5737C14.1519 15.5737 1.30444 20.4289 1.30444 26.4179C1.30444 32.407 14.1519 37.2622 30.0001 37.2622Z" stroke="#61DAFB"/>
<path d="M20.5114 31.8401C28.4355 45.4243 39.1075 54.0089 44.3479 51.0144C49.5883 48.0199 47.4128 34.5801 39.4887 20.9959C31.5646 7.41161 20.8927 -1.17303 15.6522 1.82152C10.4118 4.81607 12.5874 18.2558 20.5114 31.8401Z" stroke="#61DAFB"/>
<path d="M20.5113 20.9959C12.5873 34.5801 10.4117 48.0199 15.6521 51.0144C20.8926 54.009 31.5645 45.4243 39.4886 31.8401C47.4127 18.2559 49.5882 4.81609 44.3478 1.82154C39.1074 -1.17301 28.4354 7.41163 20.5113 20.9959Z" stroke="#61DAFB"/>
</g>
<defs>
<clipPath id="clip0_117_155">
<rect width="60" height="52.8358" fill="white"/>
</clipPath>
</defs>
</svg>
